<?xml version="1.0" standalone="no"?><!DOCTYPE svg PUBLIC "-//W3C//DTD SVG 1.1//EN" "http://www.w3.org/Graphics/SVG/1.1/DTD/svg11.dtd"><svg t="1597931302314" class="icon" viewBox="0 0 1024 1024" version="1.1" xmlns="http://www.w3.org/2000/svg" p-id="3346" width="64" height="64" xmlns:xlink="http://www.w3.org/1999/xlink"><defs><style type="text/css"></style></defs><path d="M512 960c246.4 0 448-201.6 448-448 0-246.4-201.6-448-448-448C265.6 64 64 265.6 64 512 64 758.4 265.6 960 512 960M512 1024C230.4 1024 0 793.6 0 512 0 230.4 230.4 0 512 0c281.6 0 512 230.4 512 512C1024 793.6 793.6 1024 512 1024L512 1024 512 1024zM694.4 278.4c12.8-12.8 32-12.8 44.8 0 12.8 12.8 12.8 32 0 44.8L316.8 745.6c-12.8 12.8-32 12.8-44.8 0-12.8-12.8-12.8-32 0-44.8L694.4 278.4M752 700.8c12.8 12.8 12.8 32 0 44.8-12.8 12.8-32 12.8-44.8 0L284.8 323.2c-12.8-12.8-12.8-32 0-44.8 12.8-12.8 32-12.8 44.8 0L752 700.8" p-id="3347" fill="#707070"></path></svg>