<?xml version="1.0" standalone="no"?><!DOCTYPE svg PUBLIC "-//W3C//DTD SVG 1.1//EN" "http://www.w3.org/Graphics/SVG/1.1/DTD/svg11.dtd"><svg t="1644939112675" class="icon" viewBox="0 0 1024 1024" version="1.1" xmlns="http://www.w3.org/2000/svg" p-id="8797" width="64" height="64" xmlns:xlink="http://www.w3.org/1999/xlink"><defs><style type="text/css"></style></defs><path d="M870 64c49.706 0 90 40.294 90 90v716c0 49.706-40.294 90-90 90H154c-49.706 0-90-40.294-90-90V154c0-49.706 40.294-90 90-90h716z m0 60H154c-16.569 0-30 13.431-30 30v716c0 16.569 13.431 30 30 30h716c16.569 0 30-13.431 30-30V154c0-16.569-13.431-30-30-30zM670.787 310.787c11.716-11.716 30.71-11.716 42.426 0 11.716 11.716 11.716 30.71 0 42.426L554.427 512l158.786 158.787c11.716 11.716 11.716 30.71 0 42.426-11.716 11.716-30.71 11.716-42.426 0L512 554.427 353.213 713.213c-11.598 11.599-30.331 11.715-42.073 0.348l-0.353-0.348c-11.716-11.716-11.716-30.71 0-42.426L469.573 512 310.787 353.213c-11.716-11.716-11.716-30.71 0-42.426 11.716-11.716 30.71-11.716 42.426 0L512 469.573z" fill="#f4ea2a" p-id="8798"></path></svg>