<?xml version="1.0" standalone="no"?><!DOCTYPE svg PUBLIC "-//W3C//DTD SVG 1.1//EN" "http://www.w3.org/Graphics/SVG/1.1/DTD/svg11.dtd"><svg t="1597766261926" class="icon" viewBox="0 0 1448 1024" version="1.1" xmlns="http://www.w3.org/2000/svg" p-id="22936" xmlns:xlink="http://www.w3.org/1999/xlink" width="67.875" height="48"><defs><style type="text/css"></style></defs><path d="M1251.23064 737.596506V940.917185c0 16.857383-6.020494 31.306568-17.717453 43.175541-11.868974 11.868974-26.318159 17.717453-43.175542 17.717454H255.26894c-16.857383 0-31.306568-5.84848-43.175542-17.717454-11.868974-11.868974-17.717453-26.318159-17.717453-43.175541V737.596506c0-16.857383 5.84848-31.306568 17.717453-43.175542 11.868974-11.868974 26.318159-17.717453 43.175542-17.717453h295.348228l85.663027 86.351083c24.598018 23.737947 53.324374 35.606921 86.351083 35.606921s61.753066-11.868974 86.351084-35.606921l86.351083-86.351083h294.660172c16.857383 0 31.306568 6.020494 43.175541 17.717453 12.040988 11.868974 18.061482 26.318159 18.061482 43.175542z m-206.416933-361.401646c7.224593 17.373425 4.300353 32.166639-8.944733 44.37964L751.357635 705.257853c-7.568621 8.084663-17.201411 12.040988-28.554343 12.040988-11.352931 0-20.985721-3.956325-28.554342-12.040988L409.737611 420.746514c-13.073072-12.213002-16.169326-27.006215-8.944733-44.37964 7.224593-16.513355 19.609609-24.770032 37.499076-24.770032h162.553334V66.913489c0-11.008903 3.956325-20.469679 12.040988-28.554342 8.084663-8.084663 17.545439-12.040988 28.554342-12.040988h162.553335c11.008903 0 20.469679 3.956325 28.554342 12.040988 8.084663 8.084663 12.040988 17.545439 12.040988 28.554342v284.511339h162.553334c17.889467 0 30.446498 8.256677 37.67109 24.770032z m-49.540063 532.211658c8.084663-8.084663 12.040988-17.545439 12.040987-28.554343 0-11.008903-3.956325-20.469679-12.040987-28.554342-8.084663-8.084663-17.545439-12.040988-28.554343-12.040988-11.008903 0-20.469679 3.956325-28.554342 12.040988-8.084663 8.084663-12.040988 17.545439-12.040988 28.554342 0 11.008903 3.956325 20.469679 12.040988 28.554343 8.084663 8.084663 17.545439 12.040988 28.554342 12.040987 11.008903 0 20.469679-3.956325 28.554343-12.040987z m162.553334 0c8.084663-8.084663 12.040988-17.545439 12.040988-28.554343 0-11.008903-3.956325-20.469679-12.040988-28.554342-8.084663-8.084663-17.545439-12.040988-28.554342-12.040988-11.008903 0-20.469679 3.956325-28.554343 12.040988-8.084663 8.084663-12.040988 17.545439-12.040987 28.554342 0 11.008903 3.956325 20.469679 12.040987 28.554343 8.084663 8.084663 17.545439 12.040988 28.554343 12.040987 11.008903 0 20.469679-3.956325 28.554342-12.040987z" fill="#515151" p-id="22937"></path></svg>