<?xml version="1.0" standalone="no"?><!DOCTYPE svg PUBLIC "-//W3C//DTD SVG 1.1//EN" "http://www.w3.org/Graphics/SVG/1.1/DTD/svg11.dtd"><svg t="1597766226084" class="icon" viewBox="0 0 1024 1024" version="1.1" xmlns="http://www.w3.org/2000/svg" p-id="20749" xmlns:xlink="http://www.w3.org/1999/xlink" width="48" height="48"><defs><style type="text/css"></style></defs><path d="M0 64a64 64 0 0 1 128 0v725.333333c0 58.88 47.786667 106.666667 106.666667 106.666667h725.333333a64 64 0 1 1 0 128h-725.333333A234.666667 234.666667 0 0 1 0 789.333333V64z" p-id="20750" fill="#515151"></path><path d="M589.141333 644.010667a320 320 0 1 1 0-640 320 320 0 0 1 0 640z m0-128a192 192 0 1 0 0-384 192 192 0 0 0 0 384z" p-id="20751" fill="#515151"></path><path d="M705.536 613.888A64 64 0 1 1 814.08 546.133333l106.666667 170.666667a64 64 0 1 1-108.544 67.84l-106.666667-170.666667z" p-id="20752" fill="#515151"></path></svg>